<?xml version='1.0' encoding='utf-8'?>
<svg xmlns="http://www.w3.org/2000/svg" enable-background="new 0 0 5000 4318.1206" version="1.1" viewBox="0 0 5e3 4318.1"> <path d="m2188.2 1255.4c10.178-4.7568 4.4419-17.034-2.9033-21.546-15.984-11.018-34.627-17.349-52.186-25.393-8.4265-3.8582-14.102-11.34-19.574-18.549-0.8682-1.1436-0.0251-2.7412 1.4104-2.7136 13.413 0.2566 27.106-2.3223 40.27 1.0808 27.177 10.213 46.974 32.983 72.612 46.1 9.4146 4.6287 17.062 12.408 26.391 16.788 13.272 6.2312 27.35 10.737 41.031 15.9 9.3384 3.5244 19.178 5.189 29.093 6.0039 0.3611 0.0298 30.388 5.1743 26.588-3.9453-3.2573-7.8169-33.808-20.25-38.808-22.33-13.649-5.6758-26.59-13.383-37.697-23.122l1.905-2.845c17.583 8.1777 35.168 19.587 55.379 18.832 9.1292 0.0352 20.532 3.3926 27.387-4.8267-0.9001-11.911-54.898-30.747-80.482-46.94-22.84-15.005-46.24-29.206-69.255-43.966-20.602-13.956-46.135-15.845-68.695-25.428-100.71-29.765-174.17-66.317-236.8-21.966-168.39 119.72-272.4 192.22-335.96 199.47-3.0524-18.603-0.3251-74.294 5.0366-93.039 21.094-69.438 88.177-129.4 8.7444-229.06-40.154-49.982-94.193-85.799-142.95-126.55-44.987-33.791-109.84-114.54-135.01-168.62-6.8556-14.55 0.8395-30.01 6.3658-43.547 7.7004-17.155 42.494-94.844 60.65-98.88 31.2 7.0303 59.076 24.379 90.276 31.444 28.157 1.9238 45.47-30.185 40.399-55.159 9.234-10.948 21.896-19.482 26.862-33.543 1.7488-10.248 2.0637-21.301 8.9543-29.73 12.906 2.0984 26.198 4.8613 39.174 1.6438 16.534-9.1465-4.8506-52.245-7.2404-73.172 2.8331-30.64 26.618-53.795 30.64-84.015 3.7776-23.155 15.46-44.282 30.221-62.226 12.994-15.798 13.97-45.262 7.9679-64.171-10.802-34.029-79.603-86.973-104.96-106.97-97.038-76.525-233.44-86.428-320.39 5.6309-58.353 62.915-105.65 175.75-168.41 286.32-13.243 29.847-75.978 127.37-174.4 224.76-11.123 9.7239-21.301 20.391-31.549 31.025-121.71 105.66-177.76 120.57-231.2 229.35-31.454 68.208-33.546 136.74-21.266 174.64 16.954 52.921 40.608 63.549 49.807 77.195 1.539 0.4199 4.582 1.2241 6.121 1.6438 0.4197-0.6995 1.2591-2.0984 1.6788-2.8333-30.754-25.918-58.325-108.71-25.953-197.55 25.309-61.614 54.965-88.141 87.303-128.54 8.9191-8.9539 15.635-20.356 26.757-26.862 3.6027 12.696-5.4564 22.105-12.802 31.025-92.47 118.95-101.96 215.8-62.294 335.4 14.282 20.386 29.907 84.53 127.91 144.63 66.142 40.608 147.18 48.723 222.91 39.699-0.3499 0.0415-20.603-13.823-32.014-27.186-2.105-2.4653-4.5855-4.1006-2.5207-6.8245 9.2723-12.231 35.174 47.785 148.63 29.463-13.431-9.7234-29.486-14.866-42.777-24.764-22.386-16.894-42.322-39.384-48.444-67.506-9.7936-52.431 16.999-106.3 57.223-138.96 7.275 14.026 11.682 29.241 17.943 43.721 10.894 26.809 86.628 183.53 125.36 287.06 9.5139 24.414 15.11 50.122 21.581 75.48 10.247 40.875 2.1967 37.391-9.6188 73.172-277.01 789.61-288.82 836.1-494.68 1142.2-40.282 66.287-144.21 180.93-222.03 233.58-52.23 35.562-92.854 66.51-221.16 108.39-109.94 38.654-191.04 44.807-262.15 66.737-14.201 4.2322-28.156 9.3386-42.602 12.731 9.124 12.623 12.696 18.52 20.671 31.025 12.546 17.203 23.436 32.553 37.216 53.201 29.844 46.98 130.7 177.75 177.16 221.09 6.0162 6.2261 11.752 12.697 17.733 19.062 46.4 54.552 167.87 161.66 233.33 192.27 16.649 8.3945 33.998 15.53 52.221 19.832 46.45 11.053 94.018 16.859 141.55 20.147-8.0449 19.377-11.298 40.643-22.176 58.832-6.2258 11.367-10.703 23.61-16.894 35.047-31.955 55.918-57.096 58.489-101.12 83.071-24.239 13.711-42.182 40.713-38.545 69.29 8.9029 48.929 56.442 107.35 73.417 153.51 7.9399 24.204-1.4689 48.898-4.8266 73.032-0.5598 16.789 1.9237 33.543 4.4769 50.122 2.6589 17.842 12.181 34.964 21.091 52.78 6.5125 13.024 7.1226 29.169 13.222 42.71 9.015 20.015 24.206 21.156 44.176 23.992 14.9 0.2798 30.955 1.749 44.596-5.4219 11.857-4.8965 14.271-24.869 3.1829-31.549-12.592-2.4839-25.813-4.1274-35.607-13.327 0.1966-32.502-9.6372-22.94 15.635-91.535 30.883-82.685 42.772-156.82 92.444-319.2 6.3309-18.013 9.8986-36.795 16.089-54.809 4.5121-15.565 11.997-30.185 14.306-46.275 4.8967 1.259 9.7936 2.5884 14.655 4.0571 3.0771 10.138 0.8031 5.8838 8.6393 15.81 46.478 24.088 89.008 51.155 131.06 53.34 114.99 3.9824 187.58-21.399 262.64-18.293 4.8502 59.229 8.0134 121.1-34.103 162.82-18.958 18.607-44.071 35.991-48.513 64.113-4.2321 24.939 13.991 45.575 30.535 61.63 20.986 21.021 49.982 29.906 75.306 44.211 68.756 40.531 68.047 73.809 122.59 143.41 13.956 18.573 30.08 39.944 55.474 41.448 30.15 1.5044 60.51 10.738 90.626 4.9321 16.668-3.2134 34.17-12.463 38.72-30.186 1.504-7.9395-6.121-14.655-13.396-15.39-19.307-2.0288-40.014-3.5327-56.348-15.11-13.816-7.835-23.33-20.812-34.698-31.515-13.104-25.15-55.926-177.55-64.148-252.57-14.117-62.283-13.714-126.16-18.748-189.36 0.3423 4.2954 56.89-4.9419 61.469-5.5918 37.688-5.3481 68.715-24.915 103.2-39.672 7.765-3.3228 15.04-7.835 20.916-13.921 2.6315-2.7256 1.7173-19.135 2.1161-22.886 1.7128-16.113 3.6335-32.205 5.5272-48.297 5.9268-50.364 12.044-100.7 18.041-151.06 14.709-123.51 29.421-247.02 40.652-370.9 18.924-208.74 29.552-418.03 32.369-627.56 14.202-679.07-77.574-944.11-75.83-1000.2 4.4071-4.4072 9.8635-7.4851 15.18-10.668 214.42-128.99 317.53-302.22 370.79-317.28 34.816 0.5822 148.19 91.624 230.11 89.961z"/> <path d="m4961.4 3915.7c12.119-122.82 71.175-206.98 14.25-251.4-25.47-19.869-46.529-24.104-69.055-21.822-24.682 2.4993-42.248 14.519-63.617 25.203-31.794 23.504-69.08 37.845-107.17 47.254-50.67 14.264-205.22 43.684-247.46 49.388-0.7695-7.1355-0.9097-14.376-0.7344-21.441-30.745 17.943-67.156 20.532-101.12 28.891-304.96 60.357-489.44 112.9-645.78 134.56 1.9238-16.334 1.8188-32.808 3.4626-49.143 0.0413-0.3506 34.87-335.65 40.084-403.64 1.2942-14.76 1.1545-29.626 3.0779-44.281 4.7837-40.078-1.5139-56.193 8.01-61 52.034-36.756 118.56-41.802 130.95-311.58 6.1191-130.87-6.8352-153.31-16.614-272.16-5.1677-25.044-6.4121-63.256-21.161-160.51-4.1101-30.01-20.551-224.75-22.84-305.35-4.9722-175.1 1.1797-448.82-62.154-590.66-29.452-73.032-107.07-163.72-114.65-183.32 2.0635-6.5757 12.102-9.6885 10.388-17.453-4.7568-23.435-12.102-46.275-16.649-69.71-19.587 1.7837-38.86 5.5962-58.132 9.269-11.752-17.034-5.981-37.985 0.4897-55.789 20.024-34.546 117.16-99.742 161-193.25 26.025-55.483 39.071-116.56-7.1001-156.1-0.28-1.189-0.7698-3.5676-1.0496-4.7568 10.983 8.6743 22.351 16.999 32.039 27.212-4.373-13.841-9.4236-27.751-18.189-39.459l-3.6145-1.7036c-27.521-0.3032-28.735-35.549-45.353-65.064-21.545-33.088-62.119-44.945-98.6-52.85-26.967-0.3152-52.256-10.388-77.964-17.209-81.629-18.945-73.548-42.15-101.78-66.282-3.0779 6.5757-5.7712 13.537-5.2815 20.951 2.1335 3.6028 4.4421 7.1704 6.8552 10.668-6.3306-6.0161-14.13-9.9683-20.846-15.32-4.6519-5.2114-3.0078-17.209-12.662-15.25-9.3735 7.0305-20.392 12.766-25.708 23.82-6.3311 9.0239-5.7014 20.147-5.4216 30.605-5.7444-6.7842-14.171-33.839-10.003-61.77-22.822 26.82-32.18 33.046-42.987 63.309-11.998-10.038-4.7224-26.862-7.6953-40.154-9.0591 10.703-17.209 22.175-23.26 34.802-15.696 36.453-15.128 77.673 19.084 98.116l2.1653 5.0867c-6.6604 24.415-24.195 53.969-38.089 75.156-2.8462 4.3398-15.237 17.166-14.499 21.85 4.4146 28.012 18.253 34.862-62.714 91.045-5.7161 4.2009-10.2 9.6953-14.433 15.331-10.435 13.89 21.312 27.019 29.614 49.552-3.323 2.9734-8.5347 4.582-10.283 8.9194 0.1401 6.8203 1.6438 13.571 2.0291 20.427-1.2246 10.143-11.718 17.384-10.773 28.086 0.4897 9.304 0.6648 18.888-3.6025 27.457-4.3372 7.5898-1.2942 16.194-2.1335 24.344-3.9875 6.8904-9.5488 13.186-10.668 21.336 0.2446 19.832 18.608 34.452 36.726 38.335 24.764 5.3862 50.227 5.8062 75.445 7.4502 29.24 0.4531 35.864 55.494 45.54 83.35 8.8845 30.186 21.546 59.392 26.898 90.591-25.324 22.351-55.544 39.244-76.705 66.142-4.3369 5.946-10.773 11.123-12.522 18.503 1.9233 6.4006 9.4785 7.5549 14.48 10.808 4.9036 14.125 10.808 36.695 10.284 52.71-4.0032 9.1868 6.3362-6.8347-154.46 146.45-3.7266 4.1191-131.3 125.08-158.76 148.92-6.4929 5.6375-16.246 19.538-25.884 13.38-2.4509-1.5659-4.3669-3.8228-6.2439-6.0447-44.973-53.242-61.37-62.796-75.566-86.235-8.8142 6.4707-18.433 11.752-26.722 18.888-5.5613 4.4419-10.598 10.073-17.733 11.857-7.8-2.623-13.921-8.0447-20.007-13.221-62.574-66.981-122.38-137.01-173.49-213.19-31.249-49.562-49.478-69.376-58.832-110.98-5.8411-14.516-7.6599-30.815-18.083-43.057-15.39-25.673-35.956-48.688-62.644-62.854-36.196-25.576-39.302-23.55-42.252-36.726 17.279-5.2815 35.712-2.4482 53.13-7.1353-2.0354-165.72 5.49-145.94-9.1641-157.29-50.291-32.826-77.735-62.637-102.06-36.936-1.9658 51.851-0.0559 103.84-0.9893 155.73l-2.8582 2.7898c-99.653-0.4688-86.921 1.7415-93.255-3.1912-1.543-5.677-1.8562-11.472-2.0454-17.244 18.08-5.1318 26.925-26.98 15.777-43.521-12.317-18.277-39.8-16.366-49.469 3.4387-8.3438 17.089 1.9819 36.429 19.095 40.433 0.1201 6.1892 0.2837 4.9075-4.5117 11.201-3.2878 3.8823-6.7156 9.1289-12.522 8.7092-26.408 1.5039-52.92 1.364-79.258 3.6726-2.6934 8.989 1.7136 24.729-10.213 27.387-0.4551 0.1013-2.2153-14.17-2.2532-15.483-0.1384-4.7817 0.8301-9.0562-3.2786-12.679-3.0364-2.6775-7.1978-3.7053-11.233-4.0242-12.593-0.9954-16.19 2.1836-20.034 13.483-2.7979 8.2239-3.4553 16.582-4.2637 25.174-0.7161 0.3315-1.7034 0.7834-2.7563 1.2629-2.9194 1.3291-4.7371 4.3276-4.5076 7.5269 1.543 21.527 7.2803 42.601 6.6343 64.243 0.1399 10.808 7.52 19.587 9.6536 29.94 1.679 13.081 14.655 20.357 25.079 26.408 16.614 5.2117 30.115 16.439 44.806 25.358 18.678 11.612 37.67 22.77 56.173 34.698 53.308 40.983 134.34 3.6782 180.59 52.221 21.476 22.84 35.502 51.172 51.871 77.614 0.2112 0.3506 132.25 258.31 146.52 293.42 1.0864 2.6733 0.0803 8.6538 0.436 11.757 2.7515 24.008-1.2612 23.96-2.4778 40.053-0.6252 8.2705 3.2666 16.362 1.5872 24.86 11.997 11.717 28.366 16.614 42.847 24.379 23.209 12.242 35.457 5.0068 50.667 23.389 8.9797 11.973 19.197 23.2 28.739 34.733 39.42 47.643 39.849 54.66 104.12 92.804 48.195 22.234 55.485 13.494 200.1-46.869 33.928-16.089 69.535-28.191 103.64-43.966 4.8269-1.4338 9.7939-2.728 14.76-3.9519-0.436 0.1741 64.63 392.37 80.728 556.66-157.97-18.356-273.28-38.783-409.48-42.427-75.003-7.5049-337.24-2.9204-431.86 27.807-33.057 10.735-57.48 40.954-70.423 72.813-20.437 50.306-9.6135 116.55 5.6189 167.1 8.3906 27.844 15.997 55.857 25.594 83.415 20.985 56.205 101.83 295.2 156.7 491.57 34.922 155.9 10.737 52.69 27.177 141.38 4.5103 26.526 13.543 76.232 22.071 129.98 33.244 5.1982 81.578 1.4275 156.03-0.9094 7.291 37.701 10.299 24.614 25.026 145.25 3.9067 32.002 1.9551 59.585-29.083 76.925-57.502 28.367-117.98 50.787-173.8 82.616-28.227 13.991-55.159 32.074-86.008 39.734-9.7939 1.9937-19.203 5.2817-28.367 9.1294-20.776 8.1841-43.931 4.7915-65.057 11.507-7.1702 3.8828-6.4358 12.977-7.6599 19.902 1.8186 9.5132 7.0647 19.096 17.557 20.951 13.571 2.3994 21.751 15.271 34.604 19.321 16.218 5.1099 35.473 5.7295 52.349 6.019 51.679 0.8872 99.068-16.957 147.99-30.866 32.703-5.0718 65.232 3.2876 97.971 2.5884 42.182 1.0493 84.75-1.9238 126.51 5.9458 49.738 3.8477 99.72 5.5615 149.67 3.603 16.054-2.0288 33.543-7.415 44.071-20.497 16.02-21.022 24.239-49.038 16.999-75.026-13.731-47.288-38.682-57.654-108.01-253.44-10.377-29.889-20.93-60.654-25.673-90.591 4.9316-1.6089 9.9683-3.2175 15.005-4.6868 2.8682-12.487-5.9463-23.12-8.3596-34.837-6.8804-26.758-12.532-38.226-22.351-81.707-1.7488-8.0095-4.3369-15.74-6.4355-23.574-19.497-72.789-38.851-236.66-87.825-384.51-3.0115-9.092-11.615-23.28-11.615-32.661-63.629-165.43-79.126-151.38-68.45-166.14 84.082 10.48 406.51 95.551 460.54 111.12 18.852 6.5061 37.845 12.802 55.858 21.511 1.2915 56.453 17.917 181.59 25.569 242.05 18.291 144.53 35.855 527.54 106.75 689.56 10.493 23.505 26.093 44.666 45.855 61.28 12.487 12.172 30.5 16.369 47.499 15.6 206.72 15.477 402.23-120.24 857.01-165.06 36.726-3.1128 73.626-4.0225 110.32-7.5898 4.9321 0.3501 7.9048-3.498 10.423-7.1699 0.7349-55.684-0.3496-111.44 1.0493-167.09 66.806-11.965 133.99-28.613 199.93-24.379 19.517 0.6995 37.25 10.493 51.556 23.26 17.349 14.06 26.373 35.047 37.111 54.074 20.738 39.328 42.589 80.754 57.223 122.59-0.3496 6.856-0.105 13.781-0.9443 20.671-6.5757 8.3247-15.53 14.76-20.322 24.484-6.0161 14.06-23.295 20.566-23.19 37.6-0.0073-1.2349-34.745-0.2363-44.844 9.4585-5.584 5.3594-8.8604 23.305-0.8008 31.85 11.262 13.921 30.535 13.152 46.694 12.312 6.6035-0.3428 43.307 9.3281 62.93 0.2148 9.0376-4.1973 16.758-11.781 24.548-17.857 9.8032-7.6475 15.413-19.22 24.815-27.016 17.421-14.444 57.352-41.028 66.09-71.081 11.388-48.996-33.798-97.623-23.06-206.44zm-2658.3-2518.4c5.3289-10.914 20.475-11.967 27.262-1.895 6.7876 10.072 0.1265 23.715-11.99 24.557-12.117 0.8425-20.601-11.748-15.272-22.662zm88.238 166.6c-16.229-5.3516-33.858-6.4707-48.793-15.215-20.427-11.508-41.588-21.581-62.714-31.724 2.2034-1.0144 6.6106-3.113 8.8491-4.1624 23.854-1.1895 47.814-1.0493 71.703-0.0352 9.269 0.1052 14.271 9.4441 20.147 15.285 7.1001 9.374 17.349 15.285 27.562 20.776 0.0349 4.1274 0.3147 8.2896 0.8042 12.487-5.5961 2.2036-11.612 3.3579-17.558 2.5884z"/> </svg>